<mxfile host="app.diagrams.net" agent="Mozilla/5.0 (Windows NT 10.0; Win64; x64) AppleWebKit/537.36 (KHTML, like Gecko) Chrome/134.0.0.0 Whale/4.31.304.16 Safari/537.36" version="27.0.9">
  <diagram name="페이지-1" id="v2m0u7Tq7ZrRJvh4xyKS">
    <mxGraphModel dx="1426" dy="757" grid="1" gridSize="10" guides="1" tooltips="1" connect="1" arrows="1" fold="1" page="1" pageScale="1" pageWidth="827" pageHeight="1169" math="0" shadow="0">
      <root>
        <mxCell id="0" />
        <mxCell id="1" parent="0" />
        <mxCell id="_laJthD7RzezHino16pQ-17" style="edgeStyle=orthogonalEdgeStyle;rounded=0;orthogonalLoop=1;jettySize=auto;html=1;entryX=0;entryY=0.5;entryDx=0;entryDy=0;" parent="1" source="_laJthD7RzezHino16pQ-1" target="_laJthD7RzezHino16pQ-4" edge="1">
          <mxGeometry relative="1" as="geometry" />
        </mxCell>
        <mxCell id="_laJthD7RzezHino16pQ-18" style="edgeStyle=orthogonalEdgeStyle;rounded=0;orthogonalLoop=1;jettySize=auto;html=1;entryX=0;entryY=0.5;entryDx=0;entryDy=0;" parent="1" source="_laJthD7RzezHino16pQ-1" target="_laJthD7RzezHino16pQ-6" edge="1">
          <mxGeometry relative="1" as="geometry" />
        </mxCell>
        <mxCell id="_laJthD7RzezHino16pQ-25" style="edgeStyle=orthogonalEdgeStyle;rounded=0;orthogonalLoop=1;jettySize=auto;html=1;entryX=0;entryY=0.5;entryDx=0;entryDy=0;" parent="1" source="_laJthD7RzezHino16pQ-1" target="_laJthD7RzezHino16pQ-2" edge="1">
          <mxGeometry relative="1" as="geometry" />
        </mxCell>
        <mxCell id="_laJthD7RzezHino16pQ-26" style="edgeStyle=orthogonalEdgeStyle;rounded=0;orthogonalLoop=1;jettySize=auto;html=1;entryX=0;entryY=0.5;entryDx=0;entryDy=0;" parent="1" source="_laJthD7RzezHino16pQ-1" target="_laJthD7RzezHino16pQ-3" edge="1">
          <mxGeometry relative="1" as="geometry" />
        </mxCell>
        <mxCell id="_laJthD7RzezHino16pQ-1" value="Actor" style="shape=umlActor;verticalLabelPosition=bottom;verticalAlign=top;html=1;outlineConnect=0;" parent="1" vertex="1">
          <mxGeometry x="50" y="480" width="30" height="60" as="geometry" />
        </mxCell>
        <mxCell id="_laJthD7RzezHino16pQ-4" value="주변 약국" style="ellipse;whiteSpace=wrap;html=1;" parent="1" vertex="1">
          <mxGeometry x="190" y="590" width="120" height="80" as="geometry" />
        </mxCell>
        <mxCell id="_laJthD7RzezHino16pQ-6" value="공지사항" style="ellipse;whiteSpace=wrap;html=1;" parent="1" vertex="1">
          <mxGeometry x="190" y="730" width="120" height="80" as="geometry" />
        </mxCell>
        <mxCell id="_laJthD7RzezHino16pQ-14" value="알약 검색" style="swimlane;whiteSpace=wrap;html=1;" parent="1" vertex="1">
          <mxGeometry x="150" y="310" width="610" height="230" as="geometry" />
        </mxCell>
        <mxCell id="_laJthD7RzezHino16pQ-19" style="edgeStyle=orthogonalEdgeStyle;rounded=0;orthogonalLoop=1;jettySize=auto;html=1;" parent="_laJthD7RzezHino16pQ-14" source="_laJthD7RzezHino16pQ-2" target="_laJthD7RzezHino16pQ-7" edge="1">
          <mxGeometry relative="1" as="geometry" />
        </mxCell>
        <mxCell id="_laJthD7RzezHino16pQ-2" value="식별 검색" style="ellipse;whiteSpace=wrap;html=1;" parent="_laJthD7RzezHino16pQ-14" vertex="1">
          <mxGeometry x="40" y="40" width="120" height="80" as="geometry" />
        </mxCell>
        <mxCell id="_laJthD7RzezHino16pQ-24" style="edgeStyle=orthogonalEdgeStyle;rounded=0;orthogonalLoop=1;jettySize=auto;html=1;entryX=0;entryY=0.5;entryDx=0;entryDy=0;" parent="_laJthD7RzezHino16pQ-14" source="_laJthD7RzezHino16pQ-3" target="_laJthD7RzezHino16pQ-7" edge="1">
          <mxGeometry relative="1" as="geometry" />
        </mxCell>
        <mxCell id="_laJthD7RzezHino16pQ-3" value="이미지 검색" style="ellipse;whiteSpace=wrap;html=1;" parent="_laJthD7RzezHino16pQ-14" vertex="1">
          <mxGeometry x="40" y="140" width="120" height="80" as="geometry" />
        </mxCell>
        <mxCell id="_laJthD7RzezHino16pQ-23" value="" style="edgeStyle=orthogonalEdgeStyle;rounded=0;orthogonalLoop=1;jettySize=auto;html=1;" parent="_laJthD7RzezHino16pQ-14" source="_laJthD7RzezHino16pQ-7" target="_laJthD7RzezHino16pQ-5" edge="1">
          <mxGeometry relative="1" as="geometry" />
        </mxCell>
        <mxCell id="_laJthD7RzezHino16pQ-7" value="알약 상세 정보" style="ellipse;whiteSpace=wrap;html=1;" parent="_laJthD7RzezHino16pQ-14" vertex="1">
          <mxGeometry x="270" y="85" width="120" height="80" as="geometry" />
        </mxCell>
        <mxCell id="_laJthD7RzezHino16pQ-5" value="알약 보관함" style="ellipse;whiteSpace=wrap;html=1;" parent="_laJthD7RzezHino16pQ-14" vertex="1">
          <mxGeometry x="450" y="85" width="120" height="80" as="geometry" />
        </mxCell>
      </root>
    </mxGraphModel>
  </diagram>
</mxfile>
